<svg xmlns="http://www.w3.org/2000/svg" viewBox="0 0 1001 403"><path fill="#000" fill-rule="evenodd" d="M1000.81.392v402.473H.81V.392zM288.365 32.535l-46.612 310.814.024-310.769h-77.483l-27.933 174.585-27.208-174.583H31.645v337.906h61.036l-.001-162.87 27.765 162.866h32.449l27.374-162.866v162.866h117.667l7.14-51.995h47.374l7.116 51.995 115.521.071h.094v-.071h.144V260.799l14.162-2.063 29.319 111.819h59.752l-.024-.071h.178l-38.475-131.057c19.498-14.422 41.513-51.047 35.654-86.084v-.023c.034.232 8.754 52.43 17.64 105.611l1.088 6.513L612.206 370.7l71.065-.216L731.83 64.2v306.285h115.236v-60.773h-54.7v-77.496h54.7v-61.698h-54.7V94.184h54.7V32.581H675.644l-28.191 205.803-27.896-205.802H557.74l6.925 54.915c-7.14-14.068-32.449-54.915-88.146-54.915-.048-.003-1.13-.005-2.975-.007h-.905l-.491-.001-1.621-.001h-.587l-2.559-.001h-16.42l-5.53.001h-.926l-3.686.001h-3.626l-.892.001h-2.626l-.857.001-3.317.001h-3.104l-.737.001h-2.105l-.664.001h-2.45l-.557.001h-2.416l-.404.001-2.446.001-.237 299.974-45.057-299.974zm629.791 0H857.63v337.902h112.414v-60.772h-51.888zm-589.133 87.909 17.4 144.461h-34.158zm187.014 26.235c0 27.373-12.121 44.62-26.353 51.522-4.697 2.278-9.595 3.417-14.363 3.417V92.927c.083 0 .179-.022.297-.022 4.78-.024 40.419 1.446 40.419 53.774"/></svg>
