<svg xmlns="http://www.w3.org/2000/svg" viewBox="0 0 354 386"><path fill-rule="nonzero" d="m52.573.457 183.03 94.447 3.69 87.629 15.88 1.034 34.472-28.925 24.748 29.493-38.685 32.46 1.63.445c18.848 5.197 31.64 10.829 38.376 16.897 11.619 9.18 27.863 31.035 29.683 50.154l.453 4.836c1.395 15.4 1.438 24.077-5.546 41.21-7.461 14.964-15.788 26.302-24.98 34.015l-.522.438c-9.148 7.51-21.585 13.597-37.314 18.256-19.895 4.293-28.237 1.99-46.232-2.98-18.512-5.112-37.215-24.905-44.237-37.94-4.944-7.908-8.32-22.045-10.131-42.41l-38.685 32.46-24.748-29.493 34.472-28.925 1.74-15.819-85.658-18.85-61.23-196.65 183.838 219.088 28.573 6.049 23.14 27.577-19.15 16.07c1.23 10.282 6.916 19.652 17.06 28.11 8.021 5.67 21.665 7.93 30.747 5.53 8.016-2.375 15.558-6.092 22.625-11.152 6.21-6.082 11.181-12.863 14.912-20.345 3.94-8.528 4.085-22.356-.106-31.24-6.57-11.46-14.81-18.687-24.721-21.683l-19.151 16.07-23.14-27.578-.996-29.19L52.573.458Zm24.862 44.409L226.56 222.588l.291 29.128 32.782 39.068 22.216-18.641c6.542 3.648 11.256 9.266 14.141 16.853 3.166 8.44 2.55 15.484-2.478 24.271-3.78 5.348-7.33 9.415-10.65 12.2l-.374.31c-3.29 2.682-7.786 5.369-13.49 8.06-9.527 3.425-16.571 2.809-24.333-1.774-6.97-4.16-11.684-9.777-14.141-16.853l22.215-18.641-32.782-39.068-28.635-5.345L42.197 74.434l35.238-29.568ZM15.97 118.632l41.663 128.216 81.875 17.456-.431 4.93-38.685 32.461 36.639 43.665 32.173-26.997c.546 9.985 3.074 18.96 7.582 26.926 6.763 11.948 12.807 19.93 23.906 26.935-65.947 10.082-121.097-11.305-165.45-64.162-38.996-46.473-45.42-109.617-19.272-189.43Zm109.544-91.919c83.142-11.89 144.21 5.4 183.206 51.874 44.352 52.857 55.838 110.883 34.457 174.078-4.971-12.147-11.782-19.486-22.375-28.22-7.061-5.823-15.462-9.87-25.2-12.142l32.174-26.997-36.64-43.665-38.684 32.46-4.931-.43-2.973-83.663-119.034-63.295Z"/></svg>
