<svg xmlns="http://www.w3.org/2000/svg" viewBox="0 0 392 461"><path d="M175.3 4.4c7.1-4.4 7.2-4.4 8.1-2.2.6 1.3 1 10 1 19.4l.1 17.1 5.5-2.6c4.7-2.1 6.9-2.5 14.5-2.4 5.7 0 12 .8 17.2 2.2 15 3.9 21.3 2.3 30-7.5 1.832-2.068 3.559-3.927 4.727-5.101l.26-.26C257.35 22.384 257.79 22 257.9 22c1.4 0 9.4 14.1 11.3 20 2.5 8.1 2.8 21.6.4 31.3-2.1 9.1-2.1 9.3 1.7 10.8 7.8 3.1 22.7 14.5 22.7 17.4 0 .7-1.7 3.2-3.8 5.6-2.1 2.4-6.5 9.5-9.7 15.6-7.7 14.9-14 21.9-24.5 27.2-4.3 2.2-10.3 4.5-13.3 5.1l-5.4 1.3-.7 7.5c-1 11.6-4.4 22.5-11.2 35.9l-6.2 12.2 6.225 5.81c3.215 2.989 6.186 5.079 6.675 4.59.4-.4 2.2-4.9 3.9-9.8 4.6-13.2 13.9-31.8 20.8-41.4 11.6-16.2 26.6-29.3 42.7-37.4 23.3-11.6 54.6-15 75.8-8.1 11.1 3.6 11.6 15.9 1.3 28-2.7 3.2-3.5 5.1-4.1 10.2l-.7 6.2h2.9c4.9 0 10.5 2.1 13.4 4.9 5.7 5.7 4.6 14.2-3 23.8-3.4 4.2-3.9 5.6-4.4 11.8-.3 3.9-1.5 9.5-2.6 12.5-1.2 3-2.1 6.1-2.1 6.7 0 .7 1.7 2.1 3.9 3.2 13.5 7 14.3 14.7 2.7 26.1-4.2 4.1-5.5 6.2-6.4 10.2-1.8 7.7-7 19.2-12.2 27.1-13.4 20.2-37.6 34.7-65.2 39l-7.9 1.2-2.7 8.1c-1.6 4.4-4.5 10.5-6.6 13.6-4.7 7.1-14.7 16.6-21.9 20.7-3.1 1.8-5.8 4-6.1 4.9-.3.9-1.7 8.7-3.1 17.2l-.142.862c-1.345 8.166-2.568 15.579-2.858 16.738-.3 1.4 3.3 7.9 11.6 20.9 6.7 10.4 12.3 19.5 12.6 20.2.1.275-.719.494-2.992.667l-.574.04c-6.927.46-25.26.58-66.271.592h-3.624L194.5 461h-77.8l.6-6.6c1.6-17.1 8.8-34.3 18.5-44.2 13.5-13.7 33.2-18.7 57.1-14.6 5.1.9 9.6 1.3 9.9.9.8-.8 3-12.8 3.1-17.1l.1-3.2-13.2 3.9c-7.3 2.1-13.6 3.9-14 3.9-.3 0-1.8-2-3.2-4.4-1.4-2.4-4.4-5.8-6.5-7.5-4-3.2-4-3.2-17.8-3.5-11.8-.2-14.7-.6-20.4-2.8-13.1-4.9-21.4-11.3-28.1-21.4-2.9-4.4-7.8-9.5-15.5-16-6.2-5.2-11.3-9.9-11.3-10.5 0-.5 2-3.4 4.5-6.5 2.5-3 4.5-5.8 4.5-6.2 0-.4-2.1-2.8-4.6-5.2-4.4-4.3-11.9-14.1-14.3-18.7-.866-1.653-.678-2.253 5.588-5.41l.521-.26a565.487 565.487 0 0 1 5.991-2.93c9.7-4.7 15-8 19.5-12.1 5.2-4.8 10.3-11.1 10.3-12.8 0-.3-3.7-.8-8.2-1.1-9.4-.6-22.6-4.2-34.1-9.3-9.6-4.2-14.1-4.3-26.1-.8-8.1 2.4-9.4 2.5-14.3 1.4-9.8-2.1-18.3-11.3-21.8-23.5-8.6-29.7 1.9-57.3 27.4-72l8.1-4.7V131c0-24 10.8-50.1 26.7-64.4 6.2-5.5 19.9-13.2 28.6-16.1 7.7-2.5 8.7-3.1 9.2-5.6.4-1.5 2.3-5.4 4.4-8.7 5.2-8 10.9-11.5 22.9-14.3 20-4.5 29.8-8.3 44.5-17.5ZM91.5 120.1C81.2 123.9 75 138 75 157.6c0 14.2 3.7 25 9.9 29.1 6.1 4.1 12.6 2.1 16.3-5 1.7-3.2 2.3-6.4 2.6-14.1.8-17.8-4-30.5-12.5-33.1-3-.8-2.9-2 .3-5 3.3-3.1 8.5-3.3 13.4-.6 10.6 5.6 14.2 32.8 7.1 53.4-1.1 3.2-1.6 5.5-1.1 5.2 1.7-1.1 3.6-5.7 6-14.5 4.4-16.2 2.8-37.3-3.6-45.8-4.6-6-15.3-9.5-21.9-7.1Z" fill="#000" fill-rule="nonzero"/></svg>
